<svg xmlns="http://www.w3.org/2000/svg" version="1.1" xmlns:xlink="http://www.w3.org/1999/xlink" xmlns:svgjs="http://svgjs.dev/svgjs" width="1500" height="1500" viewBox="0 0 1500 1500"><rect width="1500" height="1500" fill="#ffffff"></rect><g transform="matrix(0.6666666666666666,0,0,0.6666666666666666,249.78425655976667,249.78425655976673)"><svg viewBox="0 0 343 343" data-background-color="#ffffff" preserveAspectRatio="xMidYMid meet" height="1500" width="1500" xmlns="http://www.w3.org/2000/svg" xmlns:xlink="http://www.w3.org/1999/xlink"><g id="tight-bounds" transform="matrix(1,0,0,1,0.0740000000000407,0.07400000000001228)"><svg viewBox="0 0 342.85155851775386 342.85155851775386" height="342.85155851775386" width="342.85155851775386"><g><svg></svg></g><g><svg viewBox="0 0 342.85155851775386 342.85155851775386" height="342.85155851775386" width="342.85155851775386"><g><path d="M0 171.426c0-94.676 76.75-171.426 171.426-171.426 94.676 0 171.426 76.75 171.426 171.426 0 94.676-76.75 171.426-171.426 171.426-94.676 0-171.426-76.75-171.426-171.426zM171.426 340.523c93.39 0 169.098-75.708 169.097-169.097 0-93.39-75.708-169.098-169.097-169.098-93.39 0-169.098 75.708-169.098 169.098 0 93.39 75.708 169.098 169.098 169.097z" data-fill-palette-color="tertiary" fill="#2f64ef" stroke="transparent"></path><ellipse rx="164.56874808852186" ry="164.56874808852186" cx="171.42577925887693" cy="171.42577925887693" fill="#2f64ef" stroke="transparent" stroke-width="0" fill-opacity="1" data-fill-palette-color="tertiary"></ellipse></g><g transform="matrix(1,0,0,1,64.84655864529837,120.46539532651676)"><svg viewBox="0 0 213.1584412271571 101.92076786472033" height="101.92076786472033" width="213.1584412271571"><g><svg viewBox="0 0 213.1584412271571 101.92076786472033" height="101.92076786472033" width="213.1584412271571"><g><svg viewBox="0 0 213.1584412271571 101.92076786472033" height="101.92076786472033" width="213.1584412271571"><g transform="matrix(1,0,0,1,0,61.69159988492375)"><svg viewBox="0 0 213.1584412271571 40.229167979796586" height="40.229167979796586" width="213.1584412271571"><g id="textblocktransform"><svg viewBox="0 0 213.1584412271571 40.229167979796586" height="40.229167979796586" width="213.1584412271571" id="textblock"><g><svg viewBox="0 0 213.1584412271571 25.81748986277667" height="25.81748986277667" width="213.1584412271571"><g transform="matrix(1,0,0,1,0,0)"><svg width="213.1584412271571" viewBox="2.2 -37.8 405.76 49.15" height="25.81748986277667" data-palette-color="#ffffff"><path d="M29.55-5.15L30.7-3.5 25.7-0.1 16.2 1 6.75-3.5 3.2-9.95 2.2-16.4 2.2-21.5 4.9-28.05 11.35-34.15 18.2-36.05 23.8-36.05 31.45-34.1 30.55-31.55 29.85-25.5 27.95-25.35 26.8-32.35 23.1-33.3 17.1-33.3 9.6-26.9 7.95-18.7 8.65-11.1 11.55-5.75 16.75-1.65 24.9-2.35 29.55-5.15ZM35.9-4.55L34.25-9.5 34.25-16.05 37.2-22 42.85-25.75 49.7-26 55.95-22.25 59.2-16.25 58.6-7.1 54.9-1.2 47.15 1 40.65-0.25 35.9-4.55ZM42.9-23.2L39.75-17.75 39.5-12.15 40.1-6.35 42.25-2.6 47.55-1.3 52.45-3.45 53.9-11.25 53.4-17.75 51.55-21.9 47.9-23.75 42.9-23.2ZM68.1 0L62 0.25 62.1-1.5 65.4-2.5 65.65-7.75 65.85-18.7 65.55-29.85 65.3-34.85 61.75-34.7 61.5-36.45 68.4-37.8 70.9-37.25 70.55-30.65 70.25-13.15 70.4-8.3 70.8-2.5 74.45-1.5 74.2 0.25 68.1 0ZM82.04 0L75.94 0.25 76.04-1.5 79.34-2.5 79.59-7.75 79.79-18.7 79.49-29.85 79.24-34.85 75.69-34.7 75.44-36.45 82.34-37.8 84.84-37.25 84.49-30.65 84.19-13.15 84.34-8.3 84.74-2.5 88.39-1.5 88.14 0.25 82.04 0ZM104.59-12.9L95.94-13.45 95.89-13 97.24-5.95 101.19-2.05 105.79-1.55 110.49-4.05 111.39-2.75 107.44 0.4 102.74 1 97.84-0.15 93.59-3.7 91.04-11.2 91.89-17.9 94.49-22.6 99.74-25.5 104.14-26.05 107.64-24.95 110.34-22.5 111.89-18.05 111.94-13.9 111.24-13.35 104.59-12.9ZM102.24-23.8L98.44-21.55 96.49-17.75 96.19-15.5 103.79-15.4 107.24-16.15 106.94-20.8 105.44-23.35 102.24-23.8ZM131.74-24.5L138.14-28.7 139.74-25.35 137.64-24.05 133.49-23.5 136.99-19.2 136.94-14.35 134.14-10.2 128.04-8.2 122.74-8.95 121.84-7.65 121.64-6.25 123.04-5.35 131.64-4 134.99-3.25 138.34-0.85 138.74 5.1 136.44 8.55 130.84 11.1 122.94 11.35 119.49 10.3 116.64 7.8 115.59 4.2 117.09-0.15 120.49-1.75 118.69-3.45 118.69-6.9 120.94-9.55 116.69-12.85 116.19-19.2 120.34-24 126.69-25.5 131.74-24.5ZM121.99-12.15L125.29-10.35 129.39-10.9 132.04-13.75 132.44-18.65 130.24-22.4 126.59-23.5 121.79-21.5 120.39-17.1 121.99-12.15ZM134.94 2.05L127.99-0.3 122.19-1.1 119.94 1.35 119.64 5.05 121.89 8.3 127.54 9.15 133.49 6.9 134.94 2.05ZM155.44-12.9L146.79-13.45 146.74-13 148.09-5.95 152.04-2.05 156.64-1.55 161.34-4.05 162.24-2.75 158.29 0.4 153.59 1 148.69-0.15 144.44-3.7 141.89-11.2 142.74-17.9 145.34-22.6 150.59-25.5 154.99-26.05 158.49-24.95 161.19-22.5 162.74-18.05 162.79-13.9 162.09-13.35 155.44-12.9ZM153.09-23.8L149.29-21.55 147.34-17.75 147.04-15.5 154.64-15.4 158.09-16.15 157.79-20.8 156.29-23.35 153.09-23.8ZM186.88-35L191.73-35.5 191.23-33.05 191.18-26.5 189.38-26.1 188.08-32.75 175.68-33.15 175.18-19.6 183.53-19.85 184.53-24.65 186.53-23.9 186.03-18.2 186.53-12.15 184.53-12.55 183.58-17.5 175.18-17 175.68-2.45 180.33-1.5 180.08 0.25 172.93 0 166.33 0.5 166.43-1.25 170.43-2.5 170.93-17.85 170.43-32.5 166.38-33.7 166.63-35.45 172.93-35 186.88-35ZM202.93-24.95L202.58-18.15 202.28-13.15 202.43-8.3 202.63-2.5 206.28-1.5 206.03 0.25 200.13 0 194.03 0.25 194.13-1.5 197.43-2.5 197.68-7.75 197.58-17.35 197.33-22.55 193.78-22.4 193.53-24.15 200.43-25.5 202.93-24.95ZM195.88-34.4L197.03-36.25 199.28-37.3 201.58-36.55 202.63-33.95 201.28-31.85 199.03-30.95 196.93-32.25 195.88-34.4ZM232.98-8.3L233.38-2.45 236.93-1.5 236.68 0.25 230.78 0 224.68 0.25 224.78-1.5 228.08-2.5 228.43-7.75 228.23-18.65 226.88-21.95 222.63-22.7 217.18-19.9 217.08-18.15 216.78-13.15 216.88-8.3 217.13-2.5 220.78-1.5 220.53 0.25 214.63 0 208.53 0.25 208.63-1.5 211.93-2.5 212.28-7.75 211.83-22.55 208.28-22.4 208.03-24.15 214.93-25.5 217.43-24.95 217.28-22.4 222.63-25.65 227.73-26 232.33-22.85 233.08-18.85 232.98-8.3ZM258.38 0.7L257.43-2.25 257.18-2.25 251.63 1 246.08 0.4 242.43-2.2 239.53-8.15 239.48-16.65 241.38-20.6 247.13-25.25 252.68-26 257.53-24.75 257.23-34.3 253.08-34.7 253.33-36.45 260.23-37.8 262.23-37.25 261.88-17.9 262.23-2.05 265.68-1.55 265.33 0.1 258.38 0.7ZM245.78-4.6L250.08-1.55 257.43-4.35 257.53-22 251.98-23.75 248.83-22.85 244.98-18.75 244.28-13 245.78-4.6ZM282.17-12.9L273.52-13.45 273.47-13 274.82-5.95 278.77-2.05 283.37-1.55 288.07-4.05 288.97-2.75 285.02 0.4 280.32 1 275.42-0.15 271.17-3.7 268.62-11.2 269.47-17.9 272.07-22.6 277.32-25.5 281.72-26.05 285.22-24.95 287.92-22.5 289.47-18.05 289.52-13.9 288.82-13.35 282.17-12.9ZM279.82-23.8L276.02-21.55 274.07-17.75 273.77-15.5 281.37-15.4 284.82-16.15 284.52-20.8 283.02-23.35 279.82-23.8ZM301.62-24.95L301.42-20.9 301.62-20.9 304.72-24.45 308.12-25.95 311.87-25 311.02-17.55 309.27-17.9 308.02-23.05 304.77-22 301.22-17.85 300.97-13.15 301.12-8.3 301.32-2.5 306.32-1.5 306.07 0.25 298.82 0 292.72 0.25 292.82-1.5 296.12-2.5 296.37-7.75 296.27-17.35 296.02-22.55 292.47-22.4 292.22-24.15 299.12-25.5 301.62-24.95ZM345.42-18.3L345.92-2.5 349.77-1.5 349.52 0.25 343.42 0 336.57 0.25 336.67-1.5 340.67-2.5 341.17-17 332.57-17.25 323.42-17 323.77-2.45 327.77-1.5 327.27 0.35 321.42 0 314.62 0.35 314.92-1.5 318.87-2.45 319.17-18.3 318.67-32.5 314.82-33.5 315.07-35.5 321.17-35 328.02-35.5 327.92-33.5 323.92-32.5 323.42-19.75 332.57-19.6 341.17-19.75 340.67-32.5 336.82-33.5 337.07-35.5 343.17-35 350.02-35.5 349.92-33.5 345.92-32.5 345.42-18.3ZM361.27-24.95L360.97-17.25 360.97-6.35 362.32-3.05 366.52-2.5 371.97-5.75 371.97-11.05 371.92-17.3 371.67-22.5 368.12-22.35 367.87-24.1 374.77-25.45 377.27-24.9 376.92-18.1 376.87-14.1 376.97-11.05 376.97-2.05 380.47-1.05 380.22 0.7 373.37 0.7 372.22-3.5 366.57 0.65 361.47 1 356.87-2.15 356.12-6.15 356.17-16.85 355.67-22.55 352.12-22.4 351.87-24.15 358.77-25.5 361.27-24.95ZM390.16-37.25L389.56-22.85 389.91-22.5 395.11-25.35 400.56-25.5 405.86-21.45 407.96-13.1 406.46-5.65 402.86-1.1 395.66 1 386.21-0.25 384.46-2 384.86-18.5 384.81-29.85 384.56-34.85 381.01-34.7 380.76-36.45 387.66-37.8 390.16-37.25ZM389.56-20.1L389.46-7.65 389.86-3 396.36-1.55 401.31-4.65 402.76-10.15 402.56-16.75 399.01-21.9 395.91-22.65 389.56-20.1Z" opacity="1" transform="matrix(1,0,0,1,0,0)" fill="#ffffff" class="wordmark-text-0" data-fill-palette-color="quaternary" id="text-0"></path></svg></g></svg></g><g transform="matrix(1,0,0,1,0,31.912379599621538)"><svg viewBox="0 0 213.1584412271571 8.316788380175053" height="8.316788380175053" width="213.1584412271571"><g transform="matrix(1,0,0,1,0,0)"><svg width="213.1584412271571" viewBox="2.9 -32.45 882.86 34.45" height="8.316788380175053" data-palette-color="#ffffff"><path d="M8.6 0Q7.05 0 5.25 0.25 3.45 0.5 2.9 0.6L2.9 0.6 3.2-1.7Q5.5-2.15 6.3-3.03 7.1-3.9 7.1-6L7.1-6 7.15-27Q7.15-28.6 6.78-29.15 6.4-29.7 5.3-29.7L5.3-29.7Q4.8-29.7 4.3-29.65 3.8-29.6 3.6-29.6L3.6-29.6 3.5-29.8 3.85-32Q4.45-31.95 6.1-31.9 7.75-31.85 9.4-31.85L9.4-31.85Q11.1-31.85 12.88-31.93 14.65-32 15.3-32.05L15.3-32.05Q20.05-32.05 22.6-30.08 25.15-28.1 25.15-24.45L25.15-24.45Q25.15-21.95 23.63-19.95 22.1-17.95 19.35-16.75L19.35-16.75Q23-15.95 25.05-13.95 27.1-11.95 27.1-9.15L27.1-9.15Q27.1-6.6 25.48-4.38 23.85-2.15 21.15-0.83 18.45 0.5 15.35 0.5L15.35 0.5Q14 0.5 12.25 0.25L12.25 0.25Q9.4 0 8.6 0L8.6 0ZM10.95-17.55Q11.7-17.5 13.48-17.35 15.25-17.2 16.4-17.15L16.4-17.15Q16.4-17 17.7-17.68 19-18.35 20.05-19.78 21.1-21.2 21.1-23.6L21.1-23.6Q21.1-26.8 18.95-28.35 16.8-29.9 12.3-29.9L12.3-29.9Q11.8-29.9 11.63-29.68 11.45-29.45 11.4-28.75L11.4-28.75Q11.1-23.95 10.95-17.55L10.95-17.55ZM10.85-14.9L10.65-5.55Q10.65-3.65 11.95-2.85 13.25-2.05 16.35-2.05L16.35-2.05Q19.35-2.05 21.08-3.73 22.8-5.4 22.8-8.25L22.8-8.25Q22.8-10.95 21.1-12.68 19.4-14.4 16.05-15L16.05-15 10.85-14.9ZM32.55 0.4L32.8-1.7Q34.65-1.9 35.3-2.6 35.95-3.3 35.95-5L35.95-5 36-20.85Q36-22.1 35.7-22.53 35.4-22.95 34.5-22.95L34.5-22.95 33.15-22.9 33.05-23.1 33.35-25Q33.95-25 35.7-24.95 37.45-24.9 39.5-24.9L39.5-24.9Q47.85-24.9 51.85-25.35L51.85-25.35 52-25.1Q51.9-24.55 51.55-22.6 51.2-20.65 51.05-18.4L51.05-18.4 48.65-18.2Q48.65-18.4 48.7-18.88 48.75-19.35 48.75-19.85L48.75-19.85Q48.75-21.15 48.37-21.68 48-22.2 46.82-22.38 45.65-22.55 42.75-22.55L42.75-22.55Q41.4-22.55 40.9-22.48 40.4-22.4 40.25-22.13 40.1-21.85 40.05-21.1L40.05-21.1 39.75-14 43.85-13.95Q44.75-13.95 46.5-14.13 48.25-14.3 48.8-14.35L48.8-14.35 49-14.1 48.4-11.5Q47.85-11.5 46.22-11.55 44.6-11.6 42.8-11.6L42.8-11.6Q41.4-11.6 39.65-11.35L39.65-11.35Q39.5-7.55 39.5-4.5L39.5-4.5Q39.5-3.35 39.67-2.9 39.85-2.45 40.47-2.3 41.1-2.15 42.55-2.15L42.55-2.15Q45.8-2.15 47.2-2.45 48.6-2.75 49.17-3.68 49.75-4.6 50.1-6.85L50.1-6.85 52.3-7.05 52.5-6.8Q52.35-6.25 51.97-4.23 51.6-2.2 51.4 0L51.4 0 51.1 0.25Q49.75 0.2 45.5 0.1 41.25 0 38.6 0L38.6 0Q36.55 0 34.8 0.18 33.05 0.35 32.55 0.4L32.55 0.4ZM60.75 0.2L61.1-1.8Q63.1-1.95 63.92-2.3 64.75-2.65 64.97-3.48 65.2-4.3 65.2-6.35L65.2-6.35 65.2-22.9Q62.05-22.8 60.95-22.55 59.85-22.3 59.32-21.38 58.8-20.45 58.45-17.9L58.45-17.9 56.1-17.75Q56.2-18.4 56.42-20.63 56.65-22.85 56.7-25L56.7-25 57.1-25.35 60.65-24.95 73.4-24.95 77.05-25.35 77.45-25Q77.5-22.8 77.7-20.65 77.9-18.5 78-17.9L78-17.9 75.7-17.75Q75.3-20.35 74.77-21.33 74.25-22.3 73.22-22.55 72.2-22.8 69.3-22.9L69.3-22.9Q69.05-20.5 68.84-14.93 68.65-9.35 68.65-4.65L68.65-4.65Q68.65-3.2 69.2-2.6 69.75-2 71-2L71-2Q71.9-2 72.47-2.05 73.05-2.1 73.2-2.1L73.2-2.1 73.34-1.95 73 0.15Q72.3 0.15 70.4 0.08 68.5 0 66.7 0L66.7 0Q64.9 0 63.15 0.08 61.4 0.15 60.75 0.2L60.75 0.2ZM84.94 0.2L85.29-1.8Q87.29-1.95 88.12-2.3 88.94-2.65 89.17-3.48 89.39-4.3 89.39-6.35L89.39-6.35 89.39-22.9Q86.24-22.8 85.14-22.55 84.04-22.3 83.52-21.38 82.99-20.45 82.64-17.9L82.64-17.9 80.29-17.75Q80.39-18.4 80.62-20.63 80.84-22.85 80.89-25L80.89-25 81.29-25.35 84.84-24.95 97.59-24.95 101.24-25.35 101.64-25Q101.69-22.8 101.89-20.65 102.09-18.5 102.19-17.9L102.19-17.9 99.89-17.75Q99.49-20.35 98.97-21.33 98.44-22.3 97.42-22.55 96.39-22.8 93.49-22.9L93.49-22.9Q93.24-20.5 93.04-14.93 92.84-9.35 92.84-4.65L92.84-4.65Q92.84-3.2 93.39-2.6 93.94-2 95.19-2L95.19-2Q96.09-2 96.67-2.05 97.24-2.1 97.39-2.1L97.39-2.1 97.54-1.95 97.19 0.15Q96.49 0.15 94.59 0.08 92.69 0 90.89 0L90.89 0Q89.09 0 87.34 0.08 85.59 0.15 84.94 0.2L84.94 0.2ZM105.84 0.4L106.09-1.7Q107.94-1.9 108.59-2.6 109.24-3.3 109.24-5L109.24-5 109.29-20.85Q109.29-22.1 108.99-22.53 108.69-22.95 107.79-22.95L107.79-22.95 106.44-22.9 106.34-23.1 106.64-25Q107.24-25 108.99-24.95 110.74-24.9 112.79-24.9L112.79-24.9Q121.14-24.9 125.14-25.35L125.14-25.35 125.29-25.1Q125.19-24.55 124.84-22.6 124.49-20.65 124.34-18.4L124.34-18.4 121.94-18.2Q121.94-18.4 121.99-18.88 122.04-19.35 122.04-19.85L122.04-19.85Q122.04-21.15 121.67-21.68 121.29-22.2 120.12-22.38 118.94-22.55 116.04-22.55L116.04-22.55Q114.69-22.55 114.19-22.48 113.69-22.4 113.54-22.13 113.39-21.85 113.34-21.1L113.34-21.1 113.04-14 117.14-13.95Q118.04-13.95 119.79-14.13 121.54-14.3 122.09-14.35L122.09-14.35 122.29-14.1 121.69-11.5Q121.14-11.5 119.52-11.55 117.89-11.6 116.09-11.6L116.09-11.6Q114.69-11.6 112.94-11.35L112.94-11.35Q112.79-7.55 112.79-4.5L112.79-4.5Q112.79-3.35 112.97-2.9 113.14-2.45 113.77-2.3 114.39-2.15 115.84-2.15L115.84-2.15Q119.09-2.15 120.49-2.45 121.89-2.75 122.47-3.68 123.04-4.6 123.39-6.85L123.39-6.85 125.59-7.05 125.79-6.8Q125.64-6.25 125.27-4.23 124.89-2.2 124.69 0L124.69 0 124.39 0.25Q123.04 0.2 118.79 0.1 114.54 0 111.89 0L111.89 0Q109.84 0 108.09 0.18 106.34 0.35 105.84 0.4L105.84 0.4ZM150.09 0.6Q148.99 0.6 147.84-0.38 146.69-1.35 145.74-3.05L145.74-3.05 141.54-10.4 138.29-10.4 138.19-5.05Q138.19-3.6 138.39-2.98 138.59-2.35 139.16-2.15 139.74-1.95 141.14-1.9L141.14-1.9 141.24-1.75 140.84 0.15Q140.24 0.1 138.66 0.08 137.09 0.05 135.49 0.05L135.49 0.05Q133.94 0.05 132.79 0.1 131.64 0.15 131.24 0.2L131.24 0.2 131.59-1.85Q133.44-2.1 134.04-2.7 134.64-3.3 134.64-4.95L134.64-4.95 134.69-20.9Q134.69-22.1 134.39-22.53 134.09-22.95 133.24-22.95L133.24-22.95 131.84-22.9 131.69-23.1 131.99-25Q132.49-25 133.89-24.95 135.29-24.9 136.69-24.9L136.69-24.9Q138.14-24.9 139.79-24.98 141.44-25.05 142.04-25.05L142.04-25.05Q146.09-25.05 148.39-23.38 150.69-21.7 150.69-18.75L150.69-18.75Q150.69-16.45 149.14-14.5 147.59-12.55 144.79-11.3L144.79-11.3 149.04-4.9Q150.24-3.1 151.34-2.35 152.44-1.6 153.99-1.6L153.99-1.6 154.19-1.35 153.94 0.2 150.09 0.6ZM142.44-12.6Q143.39-13 144.11-13.38 144.84-13.75 145.74-14.95 146.64-16.15 146.64-18.05L146.64-18.05Q146.64-22.9 139.49-22.9L139.49-22.9Q139.09-22.9 138.94-22.73 138.79-22.55 138.79-22L138.79-22Q138.39-15.9 138.39-13L138.39-13 142.44-12.6ZM191.33-8.6L191.48-8.35Q190.63-4.3 190.13 0.05L190.13 0.05 189.88 0.35Q179.38 0 174.73 0L174.73 0Q171.03 0 167.78 0.5L167.78 0.5 168.08-1.8Q170.33-2.1 171.16-2.98 171.98-3.85 171.98-6L171.98-6 172.03-27Q172.03-28.6 171.66-29.15 171.28-29.7 170.18-29.7L170.18-29.7 168.48-29.6 168.38-29.8 168.73-32Q173.83-31.85 175.68-31.85L175.68-31.85Q181.63-31.85 184.93-31.98 188.23-32.1 190.68-32.45L190.68-32.45 190.83-32.15Q189.93-28.2 189.68-23.85L189.68-23.85 187.28-23.65 187.38-25.8Q187.38-27.55 186.93-28.23 186.48-28.9 184.98-29.13 183.48-29.35 179.73-29.35L179.73-29.35Q177.98-29.35 177.33-29.25 176.68-29.15 176.48-28.78 176.28-28.4 176.23-27.4L176.23-27.4 175.83-17.7 180.98-17.65Q182.93-17.65 187.08-18.2L187.08-18.2 187.28-17.95 186.58-15Q181.03-15.15 179.58-15.15L179.58-15.15Q177.93-15.15 175.73-14.8L175.73-14.8 175.53-5.25Q175.53-3.8 175.78-3.23 176.03-2.65 176.81-2.45 177.58-2.25 179.48-2.25L179.48-2.25Q183.68-2.25 185.46-2.65 187.23-3.05 187.98-4.25 188.73-5.45 189.13-8.35L189.13-8.35 191.33-8.6ZM207.98 0.45Q207.33 0.35 205.36 0.18 203.38 0 202.03 0L202.03 0Q200.73 0 199.18 0.18 197.63 0.35 197.18 0.45L197.18 0.45 197.43-1.65Q199.23-1.95 199.88-2.65 200.53-3.35 200.53-4.95L200.53-4.95 200.58-20.85Q200.58-22.1 200.28-22.53 199.98-22.95 199.13-22.95L199.13-22.95Q198.68-22.95 198.28-22.9 197.88-22.85 197.73-22.85L197.73-22.85 197.63-23.1 197.93-25Q198.43-25 199.76-24.95 201.08-24.9 202.43-24.9L202.43-24.9Q204.23-24.9 206.13-24.98 208.03-25.05 208.73-25.05L208.73-25.05Q212.73-25.05 215.78-23.6 218.83-22.15 220.51-19.53 222.18-16.9 222.18-13.4L222.18-13.4Q222.18-9.5 220.31-6.35 218.43-3.2 215.18-1.38 211.93 0.45 207.98 0.45L207.98 0.45ZM206.08-22.7Q205.28-22.7 205.01-22.53 204.73-22.35 204.68-21.8L204.68-21.8Q204.08-7.75 204.08-5.3L204.08-5.3Q204.08-3.95 204.48-3.23 204.88-2.5 205.88-2.23 206.88-1.95 208.83-1.95L208.83-1.95Q213.03-1.95 215.41-4.7 217.78-7.45 217.78-12.4L217.78-12.4Q217.78-17.45 214.78-20.08 211.78-22.7 206.08-22.7L206.08-22.7ZM238.08 0.45Q233.63 0.45 231.3-1.75 228.98-3.95 228.98-8.1L228.98-8.1 228.98-20.85Q228.98-22.1 228.68-22.53 228.38-22.95 227.48-22.95L227.48-22.95 226.13-22.9 226.03-23.05 226.33-25Q226.88-25 228.33-24.95 229.78-24.9 231.28-24.9L231.28-24.9Q232.38-24.9 233.83-25.03 235.28-25.15 235.73-25.2L235.73-25.2 235.53-23.2Q234.08-23 233.58-22.55 233.08-22.1 232.98-21L232.98-21 232.68-9.55Q232.68-6 234.33-4.08 235.98-2.15 239.08-2.15L239.08-2.15Q242.23-2.15 243.85-3.73 245.48-5.3 245.48-8.3L245.48-8.3Q245.48-11.4 245.4-15.33 245.33-19.25 245.28-20.85L245.28-20.85Q245.18-22.2 244.93-22.58 244.68-22.95 243.83-22.95L243.83-22.95 242.13-22.9 242.08-23.05 242.38-25Q242.88-25 244.25-24.95 245.63-24.9 247.03-24.9L247.03-24.9Q248.18-24.9 249.5-25.03 250.83-25.15 251.23-25.2L251.23-25.2 251.08-23.2Q249.33-22.95 248.83-22.55 248.33-22.15 248.33-21.05L248.33-21.05 248.33-8.25Q248.33-4.1 245.65-1.83 242.98 0.45 238.08 0.45L238.08 0.45ZM267.28 0.45Q261.63 0.45 258.33-2.8 255.03-6.05 255.03-11.65L255.03-11.65Q255.03-15.6 256.85-18.73 258.68-21.85 261.95-23.6 265.23-25.35 269.38-25.35L269.38-25.35Q270.88-25.35 272.5-25.15 274.13-24.95 275.25-24.7 276.38-24.45 276.68-24.4L276.68-24.4 276.88-24.1Q276.83-23.85 276.63-22.93 276.43-22 276.18-20.5 275.93-19 275.83-17.3L275.83-17.3 273.33-17.15Q273.33-17.3 273.38-17.85 273.43-18.4 273.43-19.1L273.43-19.1Q273.43-22.6 267.83-22.6L267.83-22.6Q263.93-22.6 261.68-20.03 259.43-17.45 259.43-12.95L259.43-12.95Q259.43-7.95 261.8-5 264.18-2.05 268.18-2.05L268.18-2.05Q270.83-2.05 272.4-3.48 273.98-4.9 274.68-7.95L274.68-7.95 277.18-8.15Q277.03-7.55 276.65-5.45 276.28-3.35 276.13-1.5L276.13-1.5 275.83-1.1Q275.53-1 274.4-0.63 273.28-0.25 271.38 0.1 269.48 0.45 267.28 0.45L267.28 0.45ZM293.82 0.35L293.67 0.1 293.82-1.7Q295.92-1.85 296.65-2.15 297.37-2.45 297.37-3.15L297.37-3.15Q297.37-3.95 297.02-4.85L297.02-4.85 295.82-8.7Q294.82-8.75 291.67-8.75L291.67-8.75Q290.22-8.75 287.37-8.45L287.37-8.45 285.97-4.75Q285.62-3.6 285.62-3.35L285.62-3.35Q285.62-2.55 286.17-2.2 286.72-1.85 287.97-1.85L287.97-1.85 290.12-1.85 290.27-1.65 289.97 0.25Q289.47 0.2 287.7 0.1 285.92 0 284.22 0L284.22 0Q282.62 0 281.35 0.05 280.07 0.1 279.62 0.1L279.62 0.1 279.92-1.95Q281.02-2.1 281.67-2.73 282.32-3.35 282.97-4.85L282.97-4.85 290.82-24.7 294.37-25.35 294.72-25.3Q294.72-25.1 297-17.4 299.27-9.7 301.07-4.65L301.07-4.65Q301.57-3.2 302.35-2.63 303.12-2.05 304.82-1.9L304.82-1.9 304.92-1.7 304.67 0.1Q304.17 0.1 302.82 0.05 301.47 0 300.12 0L300.12 0Q298.07 0 296.22 0.15 294.37 0.3 293.82 0.35L293.82 0.35ZM288.17-10.8L291.57-10.8Q293.32-10.8 295.22-11L295.22-11 292.17-20.7 291.82-20.7 288.17-10.8ZM309.37 0.2L309.72-1.8Q311.72-1.95 312.55-2.3 313.37-2.65 313.6-3.48 313.82-4.3 313.82-6.35L313.82-6.35 313.82-22.9Q310.67-22.8 309.57-22.55 308.47-22.3 307.95-21.38 307.42-20.45 307.07-17.9L307.07-17.9 304.72-17.75Q304.82-18.4 305.05-20.63 305.27-22.85 305.32-25L305.32-25 305.72-25.35 309.27-24.95 322.02-24.95 325.67-25.35 326.07-25Q326.12-22.8 326.32-20.65 326.52-18.5 326.62-17.9L326.62-17.9 324.32-17.75Q323.92-20.35 323.4-21.33 322.87-22.3 321.85-22.55 320.82-22.8 317.92-22.9L317.92-22.9Q317.67-20.5 317.47-14.93 317.27-9.35 317.27-4.65L317.27-4.65Q317.27-3.2 317.82-2.6 318.37-2 319.62-2L319.62-2Q320.52-2 321.1-2.05 321.67-2.1 321.82-2.1L321.82-2.1 321.97-1.95 321.62 0.15Q320.92 0.15 319.02 0.08 317.12 0 315.32 0L315.32 0Q313.52 0 311.77 0.08 310.02 0.15 309.37 0.2L309.37 0.2ZM330.22 0.45L330.47-1.6Q332.37-1.95 333.02-2.63 333.67-3.3 333.67-4.95L333.67-4.95 333.72-20.85Q333.72-22.1 333.42-22.53 333.12-22.95 332.22-22.95L332.22-22.95 330.57-22.9 330.47-23.1 330.72-25Q331.02-25 332.34-24.95 333.67-24.9 335.82-24.9L335.82-24.9Q336.97-24.9 338.64-25.05 340.32-25.2 340.82-25.25L340.82-25.25 340.62-23.2Q338.97-23 338.42-22.58 337.87-22.15 337.77-21L337.77-21Q337.57-17 337.39-12.15 337.22-7.3 337.22-4.65L337.22-4.65Q337.22-3.05 337.57-2.5 337.92-1.95 338.97-1.95L338.97-1.95Q339.67-1.95 340.24-2 340.82-2.05 341.02-2.1L341.02-2.1 341.12-1.9 340.77 0.1Q340.17 0.1 338.52 0.05 336.87 0 335.22 0L335.22 0Q333.87 0 332.29 0.18 330.72 0.35 330.22 0.45L330.22 0.45ZM357.07 0.45Q353.67 0.45 351.04-1.05 348.42-2.55 346.99-5.3 345.57-8.05 345.57-11.65L345.57-11.65Q345.57-15.55 347.34-18.68 349.12-21.8 352.19-23.58 355.27-25.35 359.07-25.35L359.07-25.35Q362.52-25.35 365.17-23.85 367.82-22.35 369.27-19.63 370.72-16.9 370.72-13.3L370.72-13.3Q370.72-9.4 368.94-6.28 367.17-3.15 364.04-1.35 360.92 0.45 357.07 0.45L357.07 0.45ZM358.27-1.95Q361.92-1.95 364.17-4.58 366.42-7.2 366.42-11.55L366.42-11.55Q366.42-14.85 365.34-17.35 364.27-19.85 362.29-21.2 360.32-22.55 357.72-22.55L357.72-22.55Q354.17-22.55 351.99-19.95 349.82-17.35 349.82-13L349.82-13Q349.82-9.7 350.87-7.2 351.92-4.7 353.84-3.33 355.77-1.95 358.27-1.95L358.27-1.95ZM395.86-6.8L395.81-21.25Q395.81-22.9 394.46-22.9L394.46-22.9 392.96-22.9 392.86-23.1 393.21-25.05Q393.66-25 394.91-24.95 396.16-24.9 397.46-24.9L397.46-24.9Q398.56-24.9 399.94-25.03 401.31-25.15 401.71-25.2L401.71-25.2 401.51-23.15Q400.06-22.95 399.44-22.38 398.81-21.8 398.76-20.65L398.76-20.65 398.16 0.85 396.21 1.4Q391.46-5.55 386.61-12.2 381.76-18.85 381.76-18.75L381.76-18.75 381.51-18.75 381.36-3.6Q381.36-2.65 381.66-2.3 381.96-1.95 382.66-1.95L382.66-1.95 384.66-2 384.81-1.85 384.41 0.15Q383.96 0.1 382.64 0.05 381.31 0 379.86 0L379.86 0Q378.71 0 377.41 0.13 376.11 0.25 375.71 0.3L375.71 0.3 375.96-1.75Q377.21-1.9 377.81-2.48 378.41-3.05 378.46-4.2L378.46-4.2 379.01-20.7Q379.01-21.95 378.29-22.43 377.56-22.9 375.51-23.15L375.51-23.15 375.31-23.4 375.66-25.1Q376.06-25.05 377.19-24.98 378.31-24.9 379.46-24.9L379.46-24.9Q380.56-24.9 381.41-24.95 382.26-25 382.51-25.05L382.51-25.05Q386.56-19.1 391.09-12.9 395.61-6.7 395.61-6.8L395.61-6.8 395.86-6.8ZM429.21 0.6Q428.46 0.5 426.03 0.25 423.61 0 422.01 0L422.01 0Q420.46 0 418.63 0.25 416.81 0.5 416.26 0.6L416.26 0.6 416.56-1.7Q418.86-2.15 419.66-3.03 420.46-3.9 420.46-6L420.46-6 420.51-27Q420.51-28.6 420.13-29.15 419.76-29.7 418.66-29.7L418.66-29.7Q418.16-29.7 417.66-29.65 417.16-29.6 416.96-29.6L416.96-29.6 416.86-29.8 417.21-32Q417.76-31.95 419.31-31.9 420.86-31.85 422.46-31.85L422.46-31.85Q424.61-31.85 426.91-31.93 429.21-32 430.06-32.05L430.06-32.05Q434.86-32.05 438.61-30.18 442.36-28.3 444.43-24.9 446.51-21.5 446.51-17.1L446.51-17.1Q446.51-12.2 444.21-8.15 441.91-4.1 437.96-1.75 434.01 0.6 429.21 0.6L429.21 0.6ZM426.61-29.6Q425.56-29.6 425.21-29.38 424.86-29.15 424.81-28.5L424.81-28.5Q424.06-9.25 424.06-6.55L424.06-6.55Q424.06-4.65 424.58-3.7 425.11-2.75 426.43-2.35 427.76-1.95 430.36-1.95L430.36-1.95Q435.76-1.95 438.86-5.68 441.96-9.4 441.96-15.9L441.96-15.9Q441.96-22.5 437.98-26.05 434.01-29.6 426.61-29.6L426.61-29.6ZM451.2 0.4L451.45-1.7Q453.31-1.9 453.95-2.6 454.61-3.3 454.61-5L454.61-5 454.65-20.85Q454.65-22.1 454.36-22.53 454.06-22.95 453.15-22.95L453.15-22.95 451.81-22.9 451.7-23.1 452-25Q452.61-25 454.36-24.95 456.11-24.9 458.15-24.9L458.15-24.9Q466.5-24.9 470.5-25.35L470.5-25.35 470.65-25.1Q470.56-24.55 470.2-22.6 469.86-20.65 469.7-18.4L469.7-18.4 467.31-18.2Q467.31-18.4 467.36-18.88 467.4-19.35 467.4-19.85L467.4-19.85Q467.4-21.15 467.03-21.68 466.65-22.2 465.48-22.38 464.31-22.55 461.4-22.55L461.4-22.55Q460.06-22.55 459.56-22.48 459.06-22.4 458.9-22.13 458.75-21.85 458.7-21.1L458.7-21.1 458.4-14 462.5-13.95Q463.4-13.95 465.15-14.13 466.9-14.3 467.45-14.35L467.45-14.35 467.65-14.1 467.06-11.5Q466.5-11.5 464.88-11.55 463.25-11.6 461.45-11.6L461.45-11.6Q460.06-11.6 458.31-11.35L458.31-11.35Q458.15-7.55 458.15-4.5L458.15-4.5Q458.15-3.35 458.33-2.9 458.5-2.45 459.13-2.3 459.75-2.15 461.2-2.15L461.2-2.15Q464.45-2.15 465.86-2.45 467.25-2.75 467.83-3.68 468.4-4.6 468.75-6.85L468.75-6.85 470.95-7.05 471.15-6.8Q471-6.25 470.63-4.23 470.25-2.2 470.06 0L470.06 0 469.75 0.25Q468.4 0.2 464.15 0.1 459.9 0 457.25 0L457.25 0Q455.2 0 453.45 0.18 451.7 0.35 451.2 0.4L451.2 0.4ZM484.6 0.65Q484-1.4 481.88-8.13 479.75-14.85 477.8-20.65L477.8-20.65Q477.45-21.75 476.58-22.3 475.7-22.85 474.2-22.95L474.2-22.95 474.1-23.1 474.4-25Q474.95-25 476.4-24.95 477.85-24.9 479.25-24.9L479.25-24.9Q480.75-24.9 482.85-25.08 484.95-25.25 485.6-25.3L485.6-25.3 485.75-25 485.6-23.2Q483.4-23.05 482.73-22.75 482.05-22.45 482.05-21.65L482.05-21.65Q482.05-20.85 484.08-13.8 486.1-6.75 486.85-4.2L486.85-4.2 487.3-4.2Q489.05-8.4 491.38-14.6 493.7-20.8 493.7-21.6L493.7-21.6Q493.7-22.4 493.1-22.73 492.5-23.05 491.05-23.05L491.05-23.05 489.05-23.05 488.95-23.25 489.2-25.15Q489.75-25.1 491.58-25 493.4-24.9 495.1-24.9L495.1-24.9Q496.65-24.9 497.95-24.95 499.25-25 499.7-25L499.7-25 499.35-22.95Q498.15-22.9 497.68-22.53 497.2-22.15 496.75-21L496.75-21 488.3-0.2 484.6 0.65ZM502.85 0.4L503.1-1.7Q504.95-1.9 505.6-2.6 506.25-3.3 506.25-5L506.25-5 506.3-20.85Q506.3-22.1 506-22.53 505.7-22.95 504.8-22.95L504.8-22.95 503.45-22.9 503.35-23.1 503.65-25Q504.25-25 506-24.95 507.75-24.9 509.8-24.9L509.8-24.9Q518.15-24.9 522.15-25.35L522.15-25.35 522.3-25.1Q522.2-24.55 521.85-22.6 521.5-20.65 521.35-18.4L521.35-18.4 518.95-18.2Q518.95-18.4 519-18.88 519.05-19.35 519.05-19.85L519.05-19.85Q519.05-21.15 518.67-21.68 518.3-22.2 517.13-22.38 515.95-22.55 513.05-22.55L513.05-22.55Q511.7-22.55 511.2-22.48 510.7-22.4 510.55-22.13 510.4-21.85 510.35-21.1L510.35-21.1 510.05-14 514.15-13.95Q515.05-13.95 516.8-14.13 518.55-14.3 519.1-14.35L519.1-14.35 519.3-14.1 518.7-11.5Q518.15-11.5 516.52-11.55 514.9-11.6 513.1-11.6L513.1-11.6Q511.7-11.6 509.95-11.35L509.95-11.35Q509.8-7.55 509.8-4.5L509.8-4.5Q509.8-3.35 509.97-2.9 510.15-2.45 510.77-2.3 511.4-2.15 512.85-2.15L512.85-2.15Q516.1-2.15 517.5-2.45 518.9-2.75 519.48-3.68 520.05-4.6 520.4-6.85L520.4-6.85 522.6-7.05 522.8-6.8Q522.65-6.25 522.27-4.23 521.9-2.2 521.7 0L521.7 0 521.4 0.25Q520.05 0.2 515.8 0.1 511.55 0 508.9 0L508.9 0Q506.85 0 505.1 0.18 503.35 0.35 502.85 0.4L502.85 0.4ZM528.6 0.4L528.9-1.7Q530.5-1.95 531.07-2.63 531.65-3.3 531.65-5L531.65-5 531.7-20.85Q531.7-22.1 531.4-22.53 531.1-22.95 530.2-22.95L530.2-22.95 528.85-22.9 528.7-23.1 529-25Q529.25-25 530.5-24.95 531.75-24.9 533.85-24.9L533.85-24.9Q534.95-24.9 536.57-25.05 538.2-25.2 538.7-25.25L538.7-25.25 538.5-23.15Q537.15-23 536.6-22.68 536.05-22.35 535.95-21.85 535.85-21.35 535.7-19.8L535.7-19.8Q535.2-13.1 535.2-4.95L535.2-4.95Q535.2-3.7 535.42-3.13 535.65-2.55 536.32-2.35 537-2.15 538.45-2.15L538.45-2.15Q540.85-2.15 541.97-2.55 543.1-2.95 543.67-4.13 544.25-5.3 544.7-7.85L544.7-7.85 546.9-8.1 547.05-7.8Q546.95-7.15 546.57-4.83 546.2-2.5 545.9 0.05L545.9 0.05 545.65 0.35Q544.5 0.3 540.77 0.15 537.05 0 534.5 0L534.5 0Q532.5 0 530.77 0.18 529.05 0.35 528.6 0.4L528.6 0.4ZM561.19 0.45Q557.79 0.45 555.17-1.05 552.54-2.55 551.12-5.3 549.69-8.05 549.69-11.65L549.69-11.65Q549.69-15.55 551.47-18.68 553.24-21.8 556.32-23.58 559.39-25.35 563.19-25.35L563.19-25.35Q566.64-25.35 569.29-23.85 571.94-22.35 573.39-19.63 574.84-16.9 574.84-13.3L574.84-13.3Q574.84-9.4 573.07-6.28 571.29-3.15 568.17-1.35 565.04 0.45 561.19 0.45L561.19 0.45ZM562.39-1.95Q566.04-1.95 568.29-4.58 570.54-7.2 570.54-11.55L570.54-11.55Q570.54-14.85 569.47-17.35 568.39-19.85 566.42-21.2 564.44-22.55 561.84-22.55L561.84-22.55Q558.29-22.55 556.12-19.95 553.94-17.35 553.94-13L553.94-13Q553.94-9.7 554.99-7.2 556.04-4.7 557.97-3.33 559.89-1.95 562.39-1.95L562.39-1.95ZM579.79 0.3L580.09-1.75Q581.84-2.05 582.42-2.68 582.99-3.3 582.99-4.95L582.99-4.95 583.04-20.85Q583.04-22.1 582.74-22.53 582.44-22.95 581.59-22.95L581.59-22.95 580.19-22.9 580.04-23.1 580.34-25Q580.59-25 581.82-24.95 583.04-24.9 585.04-24.9L585.04-24.9Q586.39-24.9 588.09-24.98 589.79-25.05 590.49-25.05L590.49-25.05Q594.99-25.05 597.27-23.15 599.54-21.25 599.54-17.95L599.54-17.95Q599.54-15.75 598.19-13.75 596.84-11.75 594.67-10.53 592.49-9.3 590.04-9.3L590.04-9.3 586.59-9.3 586.54-5.8Q586.54-4.05 586.67-3.28 586.79-2.5 587.14-2.25 587.49-2 588.34-2L588.34-2Q588.99-2 589.64-2.05 590.29-2.1 590.49-2.1L590.49-2.1 590.59-1.9 590.19 0.1Q589.74 0.1 588.54 0.05 587.34 0 586.09 0L586.09 0Q584.44 0 582.14 0.1 579.84 0.2 579.79 0.3L579.79 0.3ZM590.84-11.45Q595.49-12.2 595.49-17.25L595.49-17.25Q595.49-20.05 593.74-21.38 591.99-22.7 588.19-22.7L588.19-22.7Q587.49-22.7 587.34-22.63 587.19-22.55 587.14-22.1L587.14-22.1Q586.74-15.75 586.69-12L586.69-12 590.84-11.45ZM610.39 0.45Q608.64 0.45 607.16 0.15 605.69-0.15 604.81-0.48 603.94-0.8 603.74-0.9L603.74-0.9 603.49-1.35Q603.54-1.6 603.66-2.48 603.79-3.35 603.91-4.93 604.04-6.5 604.04-8.1L604.04-8.1 606.29-8.3Q606.29-5.6 606.71-4.28 607.14-2.95 608.19-2.45 609.24-1.95 611.39-1.95L611.39-1.95Q613.79-1.95 615.26-3 616.74-4.05 616.74-5.8L616.74-5.8Q616.74-6.95 615.91-7.83 615.09-8.7 614.01-9.3 612.94-9.9 610.59-11.05L610.59-11.05Q607.39-12.6 605.66-14.1 603.94-15.6 603.94-17.95L603.94-17.95Q603.94-20.05 605.21-21.75 606.49-23.45 608.74-24.4 610.99-25.35 613.74-25.35L613.74-25.35Q615.39-25.35 616.84-25.15 618.29-24.95 619.14-24.73 619.99-24.5 620.19-24.4L620.19-24.4 620.39-24.05Q620.29-23.5 619.94-21.58 619.59-19.65 619.44-17.45L619.44-17.45 617.49-17.25 617.19-17.45Q617.19-17.6 617.24-18.07 617.29-18.55 617.29-19.25L617.29-19.25Q617.29-21.2 616.26-21.98 615.24-22.75 612.64-22.75L612.64-22.75Q610.54-22.75 609.16-21.78 607.79-20.8 607.79-19.3L607.79-19.3Q607.79-17.8 609.16-16.75 610.54-15.7 613.34-14.35L613.34-14.35Q615.79-13.2 617.26-12.35 618.74-11.5 619.79-10.2 620.84-8.9 620.84-7.2L620.84-7.2Q620.84-4.95 619.51-3.23 618.19-1.5 615.81-0.53 613.44 0.45 610.39 0.45L610.39 0.45ZM639.93 0.2L640.33-1.95Q642.83-2.15 643.78-2.58 644.73-3 645.03-4.13 645.33-5.25 645.33-8.1L645.33-8.1 645.33-29.9Q641.08-29.75 639.56-29.43 638.03-29.1 637.48-27.98 636.93-26.85 636.48-23.6L636.48-23.6 634.13-23.4Q634.73-28.15 634.88-32.05L634.88-32.05 635.33-32.45 639.48-31.9 654.98-31.9 659.23-32.45 659.68-32.05Q659.83-27.95 660.43-23.6L660.43-23.6 658.08-23.4Q657.53-26.7 656.98-27.85 656.43-29 655.03-29.35 653.63-29.7 649.63-29.9L649.63-29.9Q649.33-26.9 649.08-19.3 648.83-11.7 648.83-5.6L648.83-5.6Q648.83-3.75 649.48-2.98 650.13-2.2 651.68-2.2L651.68-2.2Q653.18-2.2 654.43-2.35L654.43-2.35 654.58-2.15 654.13 0.15 652.48 0.1 646.78 0Q644.03 0 639.93 0.2L639.93 0.2ZM663.68 0.45L663.93-1.6Q665.78-1.95 666.43-2.63 667.08-3.3 667.08-4.95L667.08-4.95 667.13-20.85Q667.13-22.1 666.83-22.53 666.53-22.95 665.63-22.95L665.63-22.95 664.28-22.9 664.13-23.1 664.43-25Q664.93-25 666.31-24.95 667.68-24.9 669.08-24.9L669.08-24.9Q670.23-24.9 671.83-25.05 673.43-25.2 673.93-25.25L673.93-25.25 673.73-23.2Q672.53-23 672.03-22.73 671.53-22.45 671.36-21.88 671.18-21.3 671.08-19.9L671.08-19.9 670.83-13.85 677.33-13.8Q679.98-13.8 683.08-14.15L683.08-14.15 683.13-20.85Q683.13-22.1 682.83-22.53 682.53-22.95 681.63-22.95L681.63-22.95 680.23-22.9 680.13-23.1 680.43-25Q680.88-24.95 682.18-24.93 683.48-24.9 684.73-24.9L684.73-24.9Q685.93-24.9 687.66-25.05 689.38-25.2 689.93-25.25L689.93-25.25 689.78-23.2Q688.23-23 687.73-22.58 687.23-22.15 687.18-21L687.18-21Q686.98-17.05 686.81-12.18 686.63-7.3 686.63-4.65L686.63-4.65Q686.63-3.05 686.98-2.53 687.33-2 688.38-2L688.38-2Q688.98-2 689.48-2.05 689.98-2.1 690.13-2.1L690.13-2.1 690.28-1.9 689.88 0.1Q689.33 0.1 687.81 0.05 686.28 0 684.63 0L684.63 0 679.63 0.05 680.03-1.95Q681.33-1.95 681.96-2.27 682.58-2.6 682.83-3.43 683.08-4.25 683.08-5.9L683.08-5.9 683.08-11.5 677.33-11.55Q676.53-11.55 674.08-11.38 671.63-11.2 670.78-11.15L670.78-11.15 670.63-4.65Q670.63-3.05 670.98-2.5 671.33-1.95 672.38-1.95L672.38-1.95Q672.98-1.95 673.48-2 673.98-2.05 674.13-2.1L674.13-2.1 674.23-1.9 673.88 0.1Q673.48 0.1 672.36 0.05 671.23 0 669.98 0L669.98 0Q668.13 0 665.93 0.15 663.73 0.3 663.68 0.45L663.68 0.45ZM695.63 0.4L695.88-1.7Q697.73-1.9 698.38-2.6 699.03-3.3 699.03-5L699.03-5 699.08-20.85Q699.08-22.1 698.78-22.53 698.48-22.95 697.58-22.95L697.58-22.95 696.23-22.9 696.13-23.1 696.43-25Q697.03-25 698.78-24.95 700.53-24.9 702.58-24.9L702.58-24.9Q710.93-24.9 714.93-25.35L714.93-25.35 715.08-25.1Q714.98-24.55 714.63-22.6 714.28-20.65 714.13-18.4L714.13-18.4 711.73-18.2Q711.73-18.4 711.78-18.88 711.83-19.35 711.83-19.85L711.83-19.85Q711.83-21.15 711.45-21.68 711.08-22.2 709.9-22.38 708.73-22.55 705.83-22.55L705.83-22.55Q704.48-22.55 703.98-22.48 703.48-22.4 703.33-22.13 703.18-21.85 703.13-21.1L703.13-21.1 702.83-14 706.93-13.95Q707.83-13.95 709.58-14.13 711.33-14.3 711.88-14.35L711.88-14.35 712.08-14.1 711.48-11.5Q710.93-11.5 709.3-11.55 707.68-11.6 705.88-11.6L705.88-11.6Q704.48-11.6 702.73-11.35L702.73-11.35Q702.58-7.55 702.58-4.5L702.58-4.5Q702.58-3.35 702.75-2.9 702.93-2.45 703.55-2.3 704.18-2.15 705.63-2.15L705.63-2.15Q708.88-2.15 710.28-2.45 711.68-2.75 712.25-3.68 712.83-4.6 713.18-6.85L713.18-6.85 715.38-7.05 715.58-6.8Q715.43-6.25 715.05-4.23 714.68-2.2 714.48 0L714.48 0 714.18 0.25Q712.83 0.2 708.58 0.1 704.33 0 701.68 0L701.68 0Q699.63 0 697.88 0.18 696.13 0.35 695.63 0.4L695.63 0.4ZM756.72 2Q752.37-4.75 748.25-10.88 744.12-17 741.47-20.78 738.82-24.55 738.12-25.55L738.12-25.55 737.87-25.55 737.62-4.2Q737.62-3.1 737.97-2.65 738.32-2.2 739.17-2.2L739.17-2.2 741.72-2.25 741.82-2.05 741.37 0.2Q740.82 0.15 739.12 0.08 737.42 0 736.07 0L736.07 0Q734.82 0 733.35 0.18 731.87 0.35 731.42 0.4L731.42 0.4 731.67-1.9Q733.22-2.1 733.97-2.83 734.72-3.55 734.77-5.05L734.77-5.05 735.42-26.9Q735.42-28.45 734.5-29.1 733.57-29.75 731.07-30L731.07-30 730.92-30.25 731.32-32.1Q731.77-32.05 733.27-31.95 734.77-31.85 735.62-31.85L735.62-31.85Q736.67-31.85 737.67-31.93 738.67-32 738.97-32.05L738.97-32.05Q742.67-26.3 746.4-20.8 750.12-15.3 752.62-11.75 755.12-8.2 755.77-7.25L755.77-7.25 756.02-7.25 756.02-27.5Q756.02-29.65 754.37-29.65L754.37-29.65 752.47-29.6 752.37-29.8 752.82-32.05Q753.32-32 754.72-31.93 756.12-31.85 757.57-31.85L757.57-31.85Q758.87-31.85 760.45-32.02 762.02-32.2 762.52-32.25L762.52-32.25 762.27-29.95Q760.52-29.7 759.72-28.98 758.92-28.25 758.87-26.8L758.87-26.8 758.17 1.3 756.72 2ZM777.87 0.35L777.72 0.1 777.87-1.7Q779.97-1.85 780.7-2.15 781.42-2.45 781.42-3.15L781.42-3.15Q781.42-3.95 781.07-4.85L781.07-4.85 779.87-8.7Q778.87-8.75 775.72-8.75L775.72-8.75Q774.27-8.75 771.42-8.45L771.42-8.45 770.02-4.75Q769.67-3.6 769.67-3.35L769.67-3.35Q769.67-2.55 770.22-2.2 770.77-1.85 772.02-1.85L772.02-1.85 774.17-1.85 774.32-1.65 774.02 0.25Q773.52 0.2 771.75 0.1 769.97 0 768.27 0L768.27 0Q766.67 0 765.4 0.05 764.12 0.1 763.67 0.1L763.67 0.1 763.97-1.95Q765.07-2.1 765.72-2.73 766.37-3.35 767.02-4.85L767.02-4.85 774.87-24.7 778.42-25.35 778.77-25.3Q778.77-25.1 781.05-17.4 783.32-9.7 785.12-4.65L785.12-4.65Q785.62-3.2 786.4-2.63 787.17-2.05 788.87-1.9L788.87-1.9 788.97-1.7 788.72 0.1Q788.22 0.1 786.87 0.05 785.52 0 784.17 0L784.17 0Q782.12 0 780.27 0.15 778.42 0.3 777.87 0.35L777.87 0.35ZM772.22-10.8L775.62-10.8Q777.37-10.8 779.27-11L779.27-11 776.22-20.7 775.87-20.7 772.22-10.8ZM793.42 0.2L793.77-1.8Q795.77-1.95 796.59-2.3 797.42-2.65 797.64-3.48 797.87-4.3 797.87-6.35L797.87-6.35 797.87-22.9Q794.72-22.8 793.62-22.55 792.52-22.3 791.99-21.38 791.47-20.45 791.12-17.9L791.12-17.9 788.77-17.75Q788.87-18.4 789.09-20.63 789.32-22.85 789.37-25L789.37-25 789.77-25.35 793.32-24.95 806.07-24.95 809.72-25.35 810.12-25Q810.17-22.8 810.37-20.65 810.57-18.5 810.67-17.9L810.67-17.9 808.37-17.75Q807.97-20.35 807.44-21.33 806.92-22.3 805.89-22.55 804.87-22.8 801.97-22.9L801.97-22.9Q801.72-20.5 801.52-14.93 801.32-9.35 801.32-4.65L801.32-4.65Q801.32-3.2 801.87-2.6 802.42-2 803.67-2L803.67-2Q804.57-2 805.14-2.05 805.72-2.1 805.87-2.1L805.87-2.1 806.02-1.95 805.67 0.15Q804.97 0.15 803.07 0.08 801.17 0 799.37 0L799.37 0Q797.57 0 795.82 0.08 794.07 0.15 793.42 0.2L793.42 0.2ZM814.27 0.45L814.52-1.6Q816.42-1.95 817.07-2.63 817.72-3.3 817.72-4.95L817.72-4.95 817.77-20.85Q817.77-22.1 817.47-22.53 817.17-22.95 816.27-22.95L816.27-22.95 814.62-22.9 814.52-23.1 814.77-25Q815.07-25 816.39-24.95 817.72-24.9 819.87-24.9L819.87-24.9Q821.02-24.9 822.69-25.05 824.37-25.2 824.87-25.25L824.87-25.25 824.67-23.2Q823.02-23 822.47-22.58 821.92-22.15 821.82-21L821.82-21Q821.62-17 821.44-12.15 821.27-7.3 821.27-4.65L821.27-4.65Q821.27-3.05 821.62-2.5 821.97-1.95 823.02-1.95L823.02-1.95Q823.72-1.95 824.29-2 824.87-2.05 825.07-2.1L825.07-2.1 825.17-1.9 824.82 0.1Q824.22 0.1 822.57 0.05 820.92 0 819.27 0L819.27 0Q817.92 0 816.34 0.18 814.77 0.35 814.27 0.45L814.27 0.45ZM841.11 0.45Q837.71 0.45 835.09-1.05 832.46-2.55 831.04-5.3 829.61-8.05 829.61-11.65L829.61-11.65Q829.61-15.55 831.39-18.68 833.16-21.8 836.24-23.58 839.31-25.35 843.11-25.35L843.11-25.35Q846.56-25.35 849.21-23.85 851.86-22.35 853.31-19.63 854.76-16.9 854.76-13.3L854.76-13.3Q854.76-9.4 852.99-6.28 851.21-3.15 848.09-1.35 844.96 0.45 841.11 0.45L841.11 0.45ZM842.31-1.95Q845.96-1.95 848.21-4.58 850.46-7.2 850.46-11.55L850.46-11.55Q850.46-14.85 849.39-17.35 848.31-19.85 846.34-21.2 844.36-22.55 841.76-22.55L841.76-22.55Q838.21-22.55 836.04-19.95 833.86-17.35 833.86-13L833.86-13Q833.86-9.7 834.91-7.2 835.96-4.7 837.89-3.33 839.81-1.95 842.31-1.95L842.31-1.95ZM879.91-6.8L879.86-21.25Q879.86-22.9 878.51-22.9L878.51-22.9 877.01-22.9 876.91-23.1 877.26-25.05Q877.71-25 878.96-24.95 880.21-24.9 881.51-24.9L881.51-24.9Q882.61-24.9 883.99-25.03 885.36-25.15 885.76-25.2L885.76-25.2 885.56-23.15Q884.11-22.95 883.49-22.38 882.86-21.8 882.81-20.65L882.81-20.65 882.21 0.85 880.26 1.4Q875.51-5.55 870.66-12.2 865.81-18.85 865.81-18.75L865.81-18.75 865.56-18.75 865.41-3.6Q865.41-2.65 865.71-2.3 866.01-1.95 866.71-1.95L866.71-1.95 868.71-2 868.86-1.85 868.46 0.15Q868.01 0.1 866.69 0.05 865.36 0 863.91 0L863.91 0Q862.76 0 861.46 0.13 860.16 0.25 859.76 0.3L859.76 0.3 860.01-1.75Q861.26-1.9 861.86-2.48 862.46-3.05 862.51-4.2L862.51-4.2 863.06-20.7Q863.06-21.95 862.34-22.43 861.61-22.9 859.56-23.15L859.56-23.15 859.36-23.4 859.71-25.1Q860.11-25.05 861.24-24.98 862.36-24.9 863.51-24.9L863.51-24.9Q864.61-24.9 865.46-24.95 866.31-25 866.56-25.05L866.56-25.05Q870.61-19.1 875.14-12.9 879.66-6.7 879.66-6.8L879.66-6.8 879.91-6.8Z" opacity="1" transform="matrix(1,0,0,1,0,0)" fill="#ffffff" class="slogan-text-1" data-fill-palette-color="quaternary" id="text-1"></path></svg></g></svg></g></svg></g></svg></g><g transform="matrix(1,0,0,1,75.7872339221186,0)"><svg viewBox="0 0 61.583973382919915 55.596710148078884" height="55.596710148078884" width="61.583973382919915"><g><svg xmlns="http://www.w3.org/2000/svg" xmlns:xlink="http://www.w3.org/1999/xlink" version="1.1" x="0" y="0" viewBox="1.4545519375513647 4.422948368174199 61.093151213440514 55.153606262574066" enable-background="new 0 0 64 64" xml:space="preserve" height="55.596710148078884" width="61.583973382919915" class="icon-icon-0" data-fill-palette-color="quaternary" id="icon-0"><g fill="#ffffff" data-fill-palette-color="quaternary"><path fill="#ffffff" d="M62.395 19.584c-0.189 1.226-0.634 2.842-1.851 3.061-3.855 0.703-8.564 3.778-13.05 7.31l0.175-0.311c0.51-0.904 0.467-2.021-0.102-2.881-0.139-0.383-0.36-0.734-0.663-1.03l-0.078-0.077-0.061-1.076c-0.058-1.07-0.74-2.017-1.741-2.415l-1.079-0.422-0.68-0.944c-0.629-0.869-1.717-1.294-2.771-1.083l-0.957 0.19c-0.066 0.006-0.131 0.015-0.197 0.028-0.183 0.027-0.361 0.074-0.536 0.143l-0.05 0.019-0.118-0.439-0.266-0.989c3.402-3.634 6.921-8.231 9.937-12.881 0.882-1.363 2.817-1.623 4.368-1.139C56.256 5.762 63.705 11.01 62.395 19.584z" data-fill-palette-color="quaternary"></path><path fill="#ffffff" d="M38.329 38.05c-5.566 5.925-10.343 13.27-12.15 16.318-0.252 0.419-0.887 0.244-0.892-0.246-0.019-2.708-0.464-5.466-1.705-7.866-0.41-0.788-0.924-1.518-1.522-2.171-2.131-2.326-5.278-3.647-8.41-3.761-1.431-0.049-2.915 0.145-4.234 0.719-1.518 0.66-3.43 1.681-4.406 3.057-1.113 1.566-1.722 3.987-1.514 6.017 0.206 2.004 0.712 3.515 1.548 4.624 0.899 1.187 2.326 2.08 4.03 2.526 1.526 0.395 3.142 0.405 4.675 0.038 3.413-0.814 5.346-4.102 5.183-6.681-0.149-2.226-1.76-3.661-4.432-3.951-1.35-0.147-3.742-0.151-4.127 1.563-0.365 1.658 1.269 4.18 3.075 2.923 0.453-0.316 1.073-0.211 1.397 0.243 0.316 0.453 0.21 1.081-0.246 1.398-0.997 0.7-2.341 0.853-3.602 0.408-1.261-0.445-2.213-1.4-2.552-2.573-0.637-2.176-0.013-3.534 0.623-4.292 1.105-1.322 3.169-1.928 5.646-1.664 3.678 0.394 6.006 2.568 6.218 5.816 0.22 3.461-2.226 7.684-6.712 8.761-1.477 0.354-3.022 0.415-4.525 0.182-0.377-0.06-0.753-0.135-1.125-0.231-2.14-0.555-3.958-1.714-5.124-3.255-1.066-1.412-1.7-3.257-1.94-5.637-0.26-2.513 0.481-5.413 1.871-7.381 1.649-2.317 3.637-4.006 6.26-4.74 4.211-1.186 11.949-5.356 19.724-11.547-0.079 0.456-0.043 0.93 0.115 1.385l0.387 1.091-0.267 1.13c-0.245 1.047 0.147 2.151 0.995 2.806l0.913 0.706 0.386 1.099c0.361 1.01 1.285 1.727 2.354 1.82l1.149 0.105 0.922 0.711C36.887 37.941 37.62 38.133 38.329 38.05z" data-fill-palette-color="quaternary"></path><path fill="#ffffff" d="M46.289 28.86c0.215-0.394 0.193-0.885-0.074-1.258l-0.899-1.245c-0.039-0.049-0.049-0.098-0.06-0.147l-0.084-1.542c-0.021-0.452-0.308-0.854-0.731-1.019l-1.437-0.564c-0.049-0.019-0.089-0.049-0.118-0.098l-0.909-1.254c-0.267-0.363-0.729-0.548-1.171-0.457l-1.512 0.31c-0.049 0.01-0.108 0-0.157-0.019L37.7 21.001c-0.423-0.165-0.895-0.075-1.227 0.25l-1.116 1.066c-0.039 0.049-0.088 0.069-0.137 0.079l-1.512 0.301c-0.432 0.09-0.794 0.435-0.901 0.868l-0.358 1.505c-0.01 0.049-0.039 0.098-0.068 0.138l-1.116 1.075c-0.323 0.306-0.439 0.788-0.29 1.22l0.517 1.452c0.02 0.049 0.02 0.108 0.01 0.147l-0.358 1.515c-0.097 0.443 0.062 0.904 0.417 1.178l1.222 0.949c0.039 0.029 0.079 0.078 0.089 0.127l0.517 1.452c0.159 0.432 0.543 0.735 0.995 0.773l1.534 0.142c0.059 0 0.108 0.019 0.148 0.049l1.222 0.949c0.355 0.284 0.846 0.321 1.248 0.113l1.373-0.723c0.039-0.02 0.098-0.03 0.147-0.03l1.543 0.142c0.039 0 0.069 0.01 0.108 0.009 0.265-0.001 0.54-0.1 0.746-0.288 0.098-0.089 0.186-0.187 0.254-0.306l0.761-1.339c0.029-0.049 0.068-0.089 0.118-0.109l1.363-0.723c0.402-0.208 0.646-0.641 0.625-1.083l-0.085-1.542c-0.01-0.059 0.009-0.108 0.029-0.157L46.289 28.86zM44.749 29.76c-0.107 0.197-0.165 0.413-0.155 0.639l0.085 1.542c0.01 0.108-0.048 0.207-0.146 0.256l-1.363 0.723c-0.078 0.04-0.157 0.089-0.216 0.148-0.108 0.089-0.186 0.187-0.254 0.306l-0.761 1.339c-0.059 0.099-0.157 0.148-0.265 0.139L40.13 34.72c-0.226-0.019-0.442 0.021-0.638 0.12l-1.363 0.723c-0.098 0.049-0.216 0.04-0.305-0.028l-1.212-0.949c-0.177-0.137-0.394-0.215-0.61-0.234l-1.543-0.142c-0.108-0.009-0.197-0.078-0.237-0.176l-0.507-1.462c-0.079-0.206-0.208-0.392-0.385-0.529l-1.222-0.949c-0.089-0.068-0.128-0.176-0.099-0.275l0.358-1.505c0.048-0.216 0.038-0.442-0.042-0.648l-0.517-1.462c-0.03-0.098-0.001-0.216 0.068-0.285l1.116-1.075c0.157-0.158 0.274-0.355 0.322-0.571l0.358-1.505c0.019-0.098 0.107-0.187 0.206-0.207l1.522-0.301c0.216-0.04 0.422-0.149 0.579-0.307l1.106-1.066c0.088-0.079 0.196-0.099 0.295-0.06l1.437 0.564c0.207 0.078 0.433 0.097 0.649 0.056l1.522-0.301c0.098-0.02 0.206 0.019 0.276 0.107l0.899 1.254c0.128 0.176 0.306 0.313 0.512 0.401l1.447 0.564c0.098 0.039 0.168 0.127 0.168 0.235l0.085 1.542c0.011 0.226 0.09 0.442 0.219 0.618l0.909 1.254c0.059 0.088 0.07 0.206 0.011 0.295L44.749 29.76z" data-fill-palette-color="quaternary"></path><path fill="#ffffff" d="M41.221 32.269c-1.774 1.274-4.251 1.087-5.819-0.44-2.042-1.997-1.789-5.339 0.533-6.999 1.784-1.274 4.251-1.078 5.819 0.45C43.796 27.267 43.544 30.609 41.221 32.269z" data-fill-palette-color="quaternary"></path><polygon fill="#ffffff" points="44.619,35.165 52.738,38.351 52.477,35.906 54.442,34.428 46.632,31.377 46.734,33.252    45.071,34.124  " data-fill-palette-color="quaternary"></polygon><polygon fill="#ffffff" points="43.049,45.023 44.807,43.305 47.184,43.933 44.619,35.165 43.832,35.372 42.969,36.889    40.594,36.679  " data-fill-palette-color="quaternary"></polygon></g></svg></g></svg></g><g></g></svg></g></svg></g></svg></g></svg></g><defs></defs></svg><rect width="342.85155851775386" height="342.85155851775386" fill="none" stroke="none" visibility="hidden"></rect></g></svg></g></svg>